<svg width="195" height="59" viewBox="0 0 195 59" fill="none" xmlns="http://www.w3.org/2000/svg">
<path d="M0 50C0 22.3858 22.3858 0 50 0H195L185.13 26.4691C177.836 46.0298 159.157 59 138.281 59H0V50Z" fill="#00ADD3"/>
<path d="M37.2642 36V21.4545H43.0881C44.1581 21.4545 45.0507 21.6132 45.7656 21.9304C46.4806 22.2476 47.018 22.688 47.3778 23.2514C47.7377 23.8101 47.9176 24.4541 47.9176 25.1832C47.9176 25.7514 47.804 26.2509 47.5767 26.6818C47.3494 27.108 47.0369 27.4583 46.6392 27.733C46.2462 28.0028 45.7964 28.1946 45.2898 28.3082V28.4503C45.8438 28.474 46.3622 28.6302 46.8452 28.919C47.3329 29.2079 47.7282 29.6127 48.0312 30.1335C48.3343 30.6496 48.4858 31.2652 48.4858 31.9801C48.4858 32.7519 48.294 33.4408 47.9105 34.0469C47.5317 34.6482 46.9706 35.1241 46.2273 35.4744C45.4839 35.8248 44.5677 36 43.4787 36H37.2642ZM40.3395 33.4858H42.8466C43.7036 33.4858 44.3286 33.3224 44.7216 32.9957C45.1146 32.6643 45.3111 32.224 45.3111 31.6747C45.3111 31.2723 45.214 30.9171 45.0199 30.6094C44.8258 30.3016 44.5488 30.0601 44.1889 29.8849C43.8338 29.7098 43.41 29.6222 42.9176 29.6222H40.3395V33.4858ZM40.3395 27.5412H42.6193C43.0407 27.5412 43.4148 27.4678 43.7415 27.321C44.0729 27.1695 44.3333 26.9564 44.5227 26.6818C44.7169 26.4072 44.8139 26.0781 44.8139 25.6946C44.8139 25.169 44.6269 24.7453 44.2528 24.4233C43.8835 24.1013 43.358 23.9403 42.6761 23.9403H40.3395V27.5412ZM53.5408 36.206C52.8448 36.206 52.2246 36.0852 51.68 35.8438C51.1355 35.5975 50.7047 35.2353 50.3874 34.7571C50.0749 34.2741 49.9187 33.6728 49.9187 32.9531C49.9187 32.3471 50.0299 31.8381 50.2525 31.4261C50.475 31.0142 50.7781 30.6828 51.1616 30.4318C51.5451 30.1809 51.9807 29.9915 52.4684 29.8636C52.9608 29.7358 53.4769 29.6458 54.0167 29.5938C54.6512 29.5275 55.1625 29.4659 55.5508 29.4091C55.939 29.3475 56.2208 29.2576 56.396 29.1392C56.5711 29.0208 56.6587 28.8456 56.6587 28.6136V28.571C56.6587 28.1212 56.5167 27.7732 56.2326 27.527C55.9532 27.2808 55.5555 27.1577 55.0394 27.1577C54.4949 27.1577 54.0617 27.2784 53.7397 27.5199C53.4177 27.7566 53.2047 28.0549 53.1005 28.4148L50.3022 28.1875C50.4442 27.5246 50.7236 26.9517 51.1403 26.4688C51.5569 25.9811 52.0943 25.607 52.7525 25.3466C53.4154 25.0814 54.1824 24.9489 55.0536 24.9489C55.6597 24.9489 56.2397 25.0199 56.7937 25.1619C57.3524 25.304 57.8472 25.5241 58.2781 25.8224C58.7137 26.1207 59.0569 26.5043 59.3079 26.973C59.5588 27.437 59.6843 27.9934 59.6843 28.642V36H56.815V34.4872H56.7298C56.5546 34.8281 56.3202 35.1288 56.0266 35.3892C55.7331 35.6449 55.3803 35.8461 54.9684 35.9929C54.5565 36.1349 54.0806 36.206 53.5408 36.206ZM54.4073 34.1179C54.8524 34.1179 55.2454 34.0303 55.5863 33.8551C55.9272 33.6752 56.1947 33.4337 56.3888 33.1307C56.583 32.8277 56.68 32.4844 56.68 32.1009V30.9432C56.5853 31.0047 56.4551 31.0616 56.2894 31.1136C56.1284 31.161 55.9461 31.206 55.7425 31.2486C55.5389 31.2865 55.3353 31.322 55.1317 31.3551C54.9281 31.3835 54.7435 31.4096 54.5778 31.4332C54.2227 31.4853 53.9125 31.5682 53.6474 31.6818C53.3822 31.7955 53.1763 31.9493 53.0295 32.1435C52.8827 32.3329 52.8093 32.5696 52.8093 32.8537C52.8093 33.2656 52.9585 33.5805 53.2567 33.7983C53.5598 34.0114 53.9433 34.1179 54.4073 34.1179ZM62.0316 36V25.0909H65.0572V36H62.0316ZM63.5515 23.6847C63.1017 23.6847 62.7158 23.5355 62.3938 23.2372C62.0766 22.9342 61.918 22.572 61.918 22.1506C61.918 21.7339 62.0766 21.3764 62.3938 21.0781C62.7158 20.7751 63.1017 20.6236 63.5515 20.6236C64.0013 20.6236 64.3848 20.7751 64.7021 21.0781C65.024 21.3764 65.185 21.7339 65.185 22.1506C65.185 22.572 65.024 22.9342 64.7021 23.2372C64.3848 23.5355 64.0013 23.6847 63.5515 23.6847ZM70.0092 25.0909L72.0121 28.9048L74.0646 25.0909H77.1683L74.0078 30.5455L77.2536 36H74.1641L72.0121 32.2287L69.8956 36H66.7706L70.0092 30.5455L66.8842 25.0909H70.0092ZM83.5462 36.2131C82.424 36.2131 81.4581 35.9858 80.6484 35.5312C79.8435 35.072 79.2232 34.4233 78.7876 33.5852C78.352 32.7424 78.1342 31.7457 78.1342 30.5952C78.1342 29.473 78.352 28.4882 78.7876 27.6406C79.2232 26.7931 79.8364 26.1326 80.6271 25.6591C81.4226 25.1856 82.3554 24.9489 83.4254 24.9489C84.1451 24.9489 84.8151 25.0649 85.4354 25.2969C86.0604 25.5241 86.6049 25.8674 87.0689 26.3267C87.5376 26.786 87.9022 27.3636 88.1626 28.0597C88.4231 28.7509 88.5533 29.5606 88.5533 30.4886V31.3196H79.3416V29.4446H85.7053C85.7053 29.009 85.6106 28.6231 85.4212 28.2869C85.2318 27.9508 84.969 27.688 84.6328 27.4986C84.3014 27.3045 83.9155 27.2074 83.4751 27.2074C83.0159 27.2074 82.6087 27.3139 82.2536 27.527C81.9032 27.7353 81.6286 28.017 81.4297 28.3722C81.2308 28.7225 81.129 29.1132 81.1243 29.544V31.3267C81.1243 31.8665 81.2237 32.3329 81.4226 32.7259C81.6262 33.1188 81.9126 33.4219 82.282 33.6349C82.6513 33.848 83.0893 33.9545 83.5959 33.9545C83.9321 33.9545 84.2398 33.9072 84.5192 33.8125C84.7985 33.7178 85.0376 33.5758 85.2365 33.3864C85.4354 33.197 85.5869 32.965 85.6911 32.6903L88.4893 32.875C88.3473 33.5473 88.0561 34.1345 87.6158 34.6364C87.1802 35.1335 86.6167 35.5218 85.9254 35.8011C85.2389 36.0758 84.4458 36.2131 83.5462 36.2131ZM100.086 36.2131C98.9824 36.2131 98.0283 35.9787 97.2234 35.5099C96.4232 35.0365 95.8053 34.3783 95.3697 33.5355C94.9341 32.688 94.7163 31.7055 94.7163 30.5881C94.7163 29.4612 94.9341 28.4763 95.3697 27.6335C95.8053 26.786 96.4232 26.1278 97.2234 25.6591C98.0283 25.1856 98.9824 24.9489 100.086 24.9489C101.189 24.9489 102.141 25.1856 102.941 25.6591C103.746 26.1278 104.366 26.786 104.801 27.6335C105.237 28.4763 105.455 29.4612 105.455 30.5881C105.455 31.7055 105.237 32.688 104.801 33.5355C104.366 34.3783 103.746 35.0365 102.941 35.5099C102.141 35.9787 101.189 36.2131 100.086 36.2131ZM100.1 33.8693C100.602 33.8693 101.021 33.7273 101.357 33.4432C101.693 33.1544 101.946 32.7614 102.117 32.2642C102.292 31.767 102.38 31.2012 102.38 30.5668C102.38 29.9323 102.292 29.3665 102.117 28.8693C101.946 28.3722 101.693 27.9792 101.357 27.6903C101.021 27.4015 100.602 27.2571 100.1 27.2571C99.5932 27.2571 99.167 27.4015 98.8214 27.6903C98.4805 27.9792 98.2224 28.3722 98.0472 28.8693C97.8768 29.3665 97.7915 29.9323 97.7915 30.5668C97.7915 31.2012 97.8768 31.767 98.0472 32.2642C98.2224 32.7614 98.4805 33.1544 98.8214 33.4432C99.167 33.7273 99.5932 33.8693 100.1 33.8693ZM114.615 36H111.32L116.341 21.4545H120.304L125.318 36H122.023L118.379 24.7784H118.266L114.615 36ZM114.409 30.2827H122.193V32.6832H114.409V30.2827ZM127.012 40.0909V25.0909H129.995V26.9233H130.13C130.263 26.6297 130.454 26.3314 130.705 26.0284C130.961 25.7206 131.292 25.465 131.7 25.2614C132.112 25.053 132.623 24.9489 133.234 24.9489C134.029 24.9489 134.763 25.1572 135.435 25.5739C136.108 25.9858 136.645 26.6084 137.048 27.4418C137.45 28.2704 137.651 29.3097 137.651 30.5597C137.651 31.7765 137.455 32.804 137.062 33.642C136.674 34.4754 136.143 35.1075 135.471 35.5384C134.803 35.9645 134.055 36.1776 133.227 36.1776C132.639 36.1776 132.14 36.0805 131.728 35.8864C131.321 35.6922 130.987 35.4484 130.727 35.1548C130.466 34.8565 130.267 34.5559 130.13 34.2528H130.038V40.0909H127.012ZM129.974 30.5455C129.974 31.1941 130.064 31.7599 130.244 32.2429C130.424 32.7259 130.684 33.1023 131.025 33.3722C131.366 33.6373 131.78 33.7699 132.268 33.7699C132.76 33.7699 133.177 33.6349 133.518 33.3651C133.859 33.0904 134.117 32.7116 134.292 32.2287C134.472 31.741 134.562 31.1799 134.562 30.5455C134.562 29.9157 134.474 29.3617 134.299 28.8835C134.124 28.4053 133.866 28.0312 133.525 27.7614C133.184 27.4915 132.765 27.3565 132.268 27.3565C131.775 27.3565 131.359 27.4867 131.018 27.7472C130.682 28.0076 130.424 28.3769 130.244 28.8551C130.064 29.3333 129.974 29.8968 129.974 30.5455ZM139.668 40.0909V25.0909H142.651V26.9233H142.786C142.919 26.6297 143.111 26.3314 143.362 26.0284C143.617 25.7206 143.949 25.465 144.356 25.2614C144.768 25.053 145.279 24.9489 145.89 24.9489C146.685 24.9489 147.419 25.1572 148.092 25.5739C148.764 25.9858 149.301 26.6084 149.704 27.4418C150.106 28.2704 150.308 29.3097 150.308 30.5597C150.308 31.7765 150.111 32.804 149.718 33.642C149.33 34.4754 148.799 35.1075 148.127 35.5384C147.46 35.9645 146.711 36.1776 145.883 36.1776C145.296 36.1776 144.796 36.0805 144.384 35.8864C143.977 35.6922 143.643 35.4484 143.383 35.1548C143.122 34.8565 142.924 34.5559 142.786 34.2528H142.694V40.0909H139.668ZM142.63 30.5455C142.63 31.1941 142.72 31.7599 142.9 32.2429C143.08 32.7259 143.34 33.1023 143.681 33.3722C144.022 33.6373 144.436 33.7699 144.924 33.7699C145.416 33.7699 145.833 33.6349 146.174 33.3651C146.515 33.0904 146.773 32.7116 146.948 32.2287C147.128 31.741 147.218 31.1799 147.218 30.5455C147.218 29.9157 147.13 29.3617 146.955 28.8835C146.78 28.4053 146.522 28.0312 146.181 27.7614C145.84 27.4915 145.421 27.3565 144.924 27.3565C144.432 27.3565 144.015 27.4867 143.674 27.7472C143.338 28.0076 143.08 28.3769 142.9 28.8551C142.72 29.3333 142.63 29.8968 142.63 30.5455ZM155.94 21.4545L155.663 31.6392H153.063L152.779 21.4545H155.94ZM154.363 36.1847C153.894 36.1847 153.492 36.0189 153.156 35.6875C152.819 35.3513 152.654 34.9489 152.658 34.4801C152.654 34.0161 152.819 33.6184 153.156 33.2869C153.492 32.9555 153.894 32.7898 154.363 32.7898C154.813 32.7898 155.208 32.9555 155.549 33.2869C155.89 33.6184 156.063 34.0161 156.067 34.4801C156.063 34.7926 155.98 35.0791 155.819 35.3395C155.663 35.5952 155.457 35.8011 155.201 35.9574C154.945 36.1089 154.666 36.1847 154.363 36.1847Z" fill="#00011C"/>
</svg>
