<svg width="439" height="64" viewBox="0 0 439 64" fill="none" xmlns="http://www.w3.org/2000/svg">
<path d="M0.408 64V0.639997H46.296V9.472H10.68V27.712H38.52V36.352H10.68V55.168H47.64V64H0.408ZM81.3112 55.168H116.255V64H71.0392V0.639997H81.3112V55.168ZM138.108 64V0.639997H183.996V9.472H148.38V27.712H176.22V36.352H148.38V55.168H185.34V64H138.108Z" fill="white"/>
<path d="M255.875 0.639997V9.472H234.179V64H223.907V9.472H202.211V0.639997H255.875ZM303.601 0.639997C310.385 0.639997 315.761 2.336 319.729 5.72799C323.761 9.12 325.777 13.696 325.777 19.456C325.777 25.408 323.761 30.016 319.729 33.28C315.761 36.48 310.385 38.08 303.601 38.08L302.641 38.656H287.953V64H277.777V0.639997H303.601ZM302.833 30.112C306.993 30.112 310.065 29.28 312.049 27.616C314.097 25.888 315.121 23.264 315.121 19.744C315.121 16.288 314.097 13.696 312.049 11.968C310.065 10.24 306.993 9.376 302.833 9.376H287.953V30.112H302.833ZM308.881 32.224L329.521 64H317.713L300.049 36.256L308.881 32.224ZM362.149 0.639997V64H351.877V0.639997H362.149ZM438.251 64H426.155L410.507 39.616L394.955 64H383.147L405.131 31.84L384.875 0.639997H396.971L411.467 23.68L426.155 0.639997H437.387L416.843 31.456L438.251 64Z" fill="#00ADD3"/>
</svg>
