<svg width="125" height="67" viewBox="0 0 125 67" fill="none" xmlns="http://www.w3.org/2000/svg">
<path d="M90.7976 57.1935C86.0169 61.8085 79.9439 64.9751 73.3247 66.3042C66.7054 67.6334 59.8282 67.0673 53.5376 64.6754C47.2471 62.2835 41.8172 58.17 37.915 52.8402C34.0128 47.5104 31.8082 41.1964 31.572 34.6738C31.3357 28.1512 33.0782 21.704 36.5853 16.1241C40.0924 10.5442 45.2114 6.07474 51.3135 3.2646C57.4156 0.454451 64.2352 -0.573958 70.9344 0.305695C77.6336 1.18535 83.9208 3.93475 89.0238 8.21619L86.7889 10.6984C82.1869 6.83719 76.5169 4.35767 70.4752 3.56436C64.4336 2.77106 58.2835 3.69852 52.7803 6.23282C47.2772 8.76712 42.6607 12.7979 39.4978 17.83C36.335 22.8622 34.7636 28.6765 34.9766 34.5589C35.1897 40.4413 37.1779 46.1355 40.6971 50.9421C44.2162 55.7487 49.1131 59.4584 54.7861 61.6155C60.4592 63.7726 66.6614 64.2832 72.6309 63.0845C78.6004 61.8858 84.0772 59.0301 88.3886 54.868L90.7976 57.1935Z" fill="#D7E8ED"/>
<path d="M83.1874 33.5035C83.1874 42.4257 75.6744 49.7779 66.2568 49.7779C56.8393 49.7779 49.3263 42.4257 49.3263 33.5035C49.3263 24.5812 56.8393 17.229 66.2568 17.229C75.6744 17.229 83.1874 24.5812 83.1874 33.5035Z" stroke="#50CAFF" stroke-width="4"/>
<line x1="32.6666" y1="32.4575" x2="-5.72205e-05" y2="32.4575" stroke="#D7E8ED" stroke-width="4"/>
<line x1="125" y1="32.5332" x2="83.7778" y2="32.5332" stroke="#50CAFF" stroke-width="4"/>
</svg>
