<svg width="273" height="204" viewBox="0 0 273 204" fill="none" xmlns="http://www.w3.org/2000/svg">
<path d="M12.028 8.54C14.4667 8.54 16.3577 9.11867 17.701 10.276C19.065 11.4127 19.747 12.9317 19.747 14.833C19.747 16.9203 19.0753 18.5117 17.732 19.607C16.3887 20.7023 14.4977 21.25 12.059 21.25L11.563 21.529H7.502V29H2.263V8.54H12.028ZM11.284 17.747C12.3173 17.747 13.0923 17.5403 13.609 17.127C14.1257 16.7137 14.384 16.0523 14.384 15.143C14.384 14.2543 14.1257 13.6033 13.609 13.19C13.0923 12.7767 12.3173 12.57 11.284 12.57H7.502V17.747H11.284ZM14.415 18.863L20.956 29H15.066L9.827 20.041L14.415 18.863ZM30.6161 29.31C28.9008 29.31 27.4128 28.9897 26.1521 28.349C24.9121 27.7083 23.9511 26.7887 23.2691 25.59C22.5871 24.3913 22.2461 22.9447 22.2461 21.25C22.2461 19.5553 22.5871 18.1087 23.2691 16.91C23.9511 15.7113 24.9018 14.7917 26.1211 14.151C27.3611 13.5103 28.7768 13.19 30.3681 13.19C32.0008 13.19 33.3855 13.5103 34.5221 14.151C35.6795 14.771 36.5578 15.639 37.1571 16.755C37.7565 17.8503 38.0561 19.111 38.0561 20.537C38.0561 20.909 38.0458 21.281 38.0251 21.653C38.0045 22.025 37.9735 22.335 37.9321 22.583H25.6561V19.762H35.6071L33.0961 20.723C33.0961 19.483 32.8688 18.5323 32.4141 17.871C31.9801 17.2097 31.2981 16.879 30.3681 16.879C29.7068 16.879 29.1385 17.034 28.6631 17.344C28.2085 17.654 27.8571 18.1397 27.6091 18.801C27.3818 19.4623 27.2681 20.3097 27.2681 21.343C27.2681 22.3557 27.4025 23.1823 27.6711 23.823C27.9398 24.443 28.3221 24.8977 28.8181 25.187C29.3141 25.4557 29.9135 25.59 30.6161 25.59C31.4015 25.59 32.0215 25.435 32.4761 25.125C32.9515 24.815 33.3028 24.381 33.5301 23.823L37.7461 25.218C37.4568 26.1067 36.9505 26.861 36.2271 27.481C35.5245 28.0803 34.6771 28.535 33.6851 28.845C32.7138 29.155 31.6908 29.31 30.6161 29.31ZM47.5143 29.31C45.9643 29.31 44.5176 29.062 43.1743 28.566C41.8516 28.0493 40.7563 27.3157 39.8883 26.365L42.3683 23.451C42.8849 24.1123 43.5669 24.6703 44.4143 25.125C45.2823 25.559 46.2433 25.776 47.2973 25.776C47.9379 25.776 48.4649 25.683 48.8783 25.497C49.2916 25.311 49.4983 25.0217 49.4983 24.629C49.4983 24.3397 49.3949 24.1123 49.1883 23.947C48.9816 23.761 48.5683 23.606 47.9483 23.482L45.7783 23.048C43.8356 22.6553 42.4509 22.0767 41.6243 21.312C40.8183 20.5267 40.4153 19.5037 40.4153 18.243C40.4153 17.3957 40.6736 16.5897 41.1903 15.825C41.7069 15.0397 42.5026 14.4093 43.5773 13.934C44.6519 13.438 46.0263 13.19 47.7003 13.19C49.2709 13.19 50.6556 13.4173 51.8543 13.872C53.0529 14.3267 54.0036 14.988 54.7063 15.856L52.1953 18.708C51.6993 18.088 51.0586 17.6023 50.2733 17.251C49.4879 16.8997 48.7026 16.724 47.9173 16.724C47.4213 16.724 46.9976 16.7757 46.6463 16.879C46.3156 16.9617 46.0676 17.0857 45.9023 17.251C45.7369 17.4163 45.6543 17.623 45.6543 17.871C45.6543 18.1397 45.7783 18.3773 46.0263 18.584C46.2949 18.77 46.7806 18.9353 47.4833 19.08L50.3043 19.638C51.8956 19.9273 53.0426 20.4543 53.7453 21.219C54.4479 21.9837 54.7993 22.9033 54.7993 23.978C54.7993 24.9907 54.5306 25.9 53.9933 26.706C53.4559 27.512 52.6499 28.1527 51.5753 28.628C50.5006 29.0827 49.1469 29.31 47.5143 29.31ZM57.5336 35.51V13.5H62.2766L62.5556 19.111L61.9356 18.46C62.0802 17.4267 62.4006 16.5173 62.8966 15.732C63.3926 14.9467 64.0332 14.3267 64.8186 13.872C65.6039 13.4173 66.5029 13.19 67.5156 13.19C68.7969 13.19 69.9129 13.5103 70.8636 14.151C71.8142 14.771 72.5479 15.6803 73.0646 16.879C73.6019 18.057 73.8706 19.4933 73.8706 21.188C73.8706 22.8827 73.6019 24.3397 73.0646 25.559C72.5272 26.7783 71.7729 27.7083 70.8016 28.349C69.8509 28.9897 68.7349 29.31 67.4536 29.31C66.0482 29.31 64.9116 28.8967 64.0436 28.07C63.1756 27.2227 62.5969 26.1583 62.3076 24.877L62.8036 24.133V35.51H57.5336ZM65.6556 25.435C66.5649 25.435 67.2779 25.1043 67.7946 24.443C68.3112 23.761 68.5696 22.6967 68.5696 21.25C68.5696 19.8033 68.3112 18.7493 67.7946 18.088C67.2986 17.406 66.5959 17.065 65.6866 17.065C65.1079 17.065 64.6016 17.2303 64.1676 17.561C63.7336 17.871 63.3926 18.336 63.1446 18.956C62.9172 19.576 62.8036 20.3407 62.8036 21.25C62.8036 22.118 62.9069 22.8723 63.1136 23.513C63.3409 24.133 63.6716 24.6083 64.1056 24.939C64.5396 25.2697 65.0562 25.435 65.6556 25.435ZM84.3471 13.19C85.9798 13.19 87.4058 13.5103 88.6251 14.151C89.8651 14.771 90.8261 15.6907 91.5081 16.91C92.2108 18.1087 92.5621 19.5553 92.5621 21.25C92.5621 22.9447 92.2108 24.4017 91.5081 25.621C90.8261 26.8197 89.8651 27.7393 88.6251 28.38C87.4058 29 85.9798 29.31 84.3471 29.31C82.7558 29.31 81.3401 29 80.1001 28.38C78.8601 27.7393 77.8888 26.8197 77.1861 25.621C76.5041 24.4017 76.1631 22.9447 76.1631 21.25C76.1631 19.5553 76.5041 18.1087 77.1861 16.91C77.8888 15.6907 78.8601 14.771 80.1001 14.151C81.3401 13.5103 82.7558 13.19 84.3471 13.19ZM84.3471 16.941C83.7478 16.941 83.2311 17.0857 82.7971 17.375C82.3631 17.6643 82.0325 18.1293 81.8051 18.77C81.5778 19.4107 81.4641 20.2373 81.4641 21.25C81.4641 22.2627 81.5778 23.0893 81.8051 23.73C82.0325 24.35 82.3631 24.815 82.7971 25.125C83.2311 25.4143 83.7478 25.559 84.3471 25.559C84.9671 25.559 85.4941 25.4143 85.9281 25.125C86.3621 24.815 86.6928 24.35 86.9201 23.73C87.1475 23.0893 87.2611 22.2627 87.2611 21.25C87.2611 20.2373 87.1475 19.4107 86.9201 18.77C86.6928 18.1293 86.3621 17.6643 85.9281 17.375C85.4941 17.0857 84.9671 16.941 84.3471 16.941ZM102.037 29.31C100.487 29.31 99.0401 29.062 97.6967 28.566C96.3741 28.0493 95.2787 27.3157 94.4107 26.365L96.8907 23.451C97.4074 24.1123 98.0894 24.6703 98.9367 25.125C99.8047 25.559 100.766 25.776 101.82 25.776C102.46 25.776 102.987 25.683 103.401 25.497C103.814 25.311 104.021 25.0217 104.021 24.629C104.021 24.3397 103.917 24.1123 103.711 23.947C103.504 23.761 103.091 23.606 102.471 23.482L100.301 23.048C98.3581 22.6553 96.9734 22.0767 96.1467 21.312C95.3407 20.5267 94.9377 19.5037 94.9377 18.243C94.9377 17.3957 95.1961 16.5897 95.7127 15.825C96.2294 15.0397 97.0251 14.4093 98.0997 13.934C99.1744 13.438 100.549 13.19 102.223 13.19C103.793 13.19 105.178 13.4173 106.377 13.872C107.575 14.3267 108.526 14.988 109.229 15.856L106.718 18.708C106.222 18.088 105.581 17.6023 104.796 17.251C104.01 16.8997 103.225 16.724 102.44 16.724C101.944 16.724 101.52 16.7757 101.169 16.879C100.838 16.9617 100.59 17.0857 100.425 17.251C100.259 17.4163 100.177 17.623 100.177 17.871C100.177 18.1397 100.301 18.3773 100.549 18.584C100.817 18.77 101.303 18.9353 102.006 19.08L104.827 19.638C106.418 19.9273 107.565 20.4543 108.268 21.219C108.97 21.9837 109.322 22.9033 109.322 23.978C109.322 24.9907 109.053 25.9 108.516 26.706C107.978 27.512 107.172 28.1527 106.098 28.628C105.023 29.0827 103.669 29.31 102.037 29.31ZM118.535 8.571V23.482C118.535 24.226 118.711 24.7633 119.062 25.094C119.434 25.404 119.94 25.559 120.581 25.559C121.077 25.559 121.501 25.5073 121.852 25.404C122.224 25.28 122.555 25.1043 122.844 24.877L123.402 28.132C122.885 28.504 122.234 28.7933 121.449 29C120.664 29.2067 119.858 29.31 119.031 29.31C117.853 29.31 116.83 29.1447 115.962 28.814C115.115 28.4833 114.453 27.9563 113.978 27.233C113.523 26.5097 113.286 25.5487 113.265 24.35V10.028L118.535 8.571ZM123.154 13.5V17.251H110.599V13.5H123.154ZM134.51 19.173C134.51 18.4497 134.303 17.8813 133.89 17.468C133.497 17.034 132.96 16.817 132.278 16.817C131.596 16.817 131.007 16.9927 130.511 17.344C130.035 17.6747 129.705 18.274 129.519 19.142L125.055 18.088C125.344 16.6 126.109 15.4117 127.349 14.523C128.589 13.6343 130.335 13.19 132.588 13.19C134.096 13.19 135.378 13.4173 136.432 13.872C137.506 14.306 138.323 14.9673 138.881 15.856C139.459 16.724 139.749 17.7987 139.749 19.08V24.753C139.749 25.559 140.11 25.962 140.834 25.962C141.206 25.962 141.505 25.9207 141.733 25.838L141.423 28.845C140.803 29.1343 140.048 29.279 139.16 29.279C138.354 29.279 137.641 29.155 137.021 28.907C136.401 28.6383 135.915 28.2457 135.564 27.729C135.212 27.1917 135.037 26.52 135.037 25.714V25.528L135.626 25.311C135.626 26.1997 135.357 26.9437 134.82 27.543C134.303 28.1423 133.621 28.5867 132.774 28.876C131.947 29.1653 131.079 29.31 130.17 29.31C129.116 29.31 128.196 29.1447 127.411 28.814C126.625 28.4833 126.016 28.008 125.582 27.388C125.168 26.7473 124.962 25.962 124.962 25.032C124.962 23.916 125.292 22.9963 125.954 22.273C126.636 21.529 127.7 21.0123 129.147 20.723L135.006 19.514L134.975 22.304L131.999 22.924C131.379 23.048 130.914 23.234 130.604 23.482C130.314 23.7093 130.17 24.0607 130.17 24.536C130.17 24.9907 130.335 25.3317 130.666 25.559C130.996 25.7863 131.389 25.9 131.844 25.9C132.195 25.9 132.526 25.8483 132.836 25.745C133.166 25.6417 133.456 25.4867 133.704 25.28C133.952 25.0527 134.148 24.7737 134.293 24.443C134.437 24.1123 134.51 23.7197 134.51 23.265V19.173ZM150.323 29.31C148.773 29.31 147.326 29.062 145.983 28.566C144.66 28.0493 143.565 27.3157 142.697 26.365L145.177 23.451C145.694 24.1123 146.376 24.6703 147.223 25.125C148.091 25.559 149.052 25.776 150.106 25.776C150.747 25.776 151.274 25.683 151.687 25.497C152.1 25.311 152.307 25.0217 152.307 24.629C152.307 24.3397 152.204 24.1123 151.997 23.947C151.79 23.761 151.377 23.606 150.757 23.482L148.587 23.048C146.644 22.6553 145.26 22.0767 144.433 21.312C143.627 20.5267 143.224 19.5037 143.224 18.243C143.224 17.3957 143.482 16.5897 143.999 15.825C144.516 15.0397 145.311 14.4093 146.386 13.934C147.461 13.438 148.835 13.19 150.509 13.19C152.08 13.19 153.464 13.4173 154.663 13.872C155.862 14.3267 156.812 14.988 157.515 15.856L155.004 18.708C154.508 18.088 153.867 17.6023 153.082 17.251C152.297 16.8997 151.511 16.724 150.726 16.724C150.23 16.724 149.806 16.7757 149.455 16.879C149.124 16.9617 148.876 17.0857 148.711 17.251C148.546 17.4163 148.463 17.623 148.463 17.871C148.463 18.1397 148.587 18.3773 148.835 18.584C149.104 18.77 149.589 18.9353 150.292 19.08L153.113 19.638C154.704 19.9273 155.851 20.4543 156.554 21.219C157.257 21.9837 157.608 22.9033 157.608 23.978C157.608 24.9907 157.339 25.9 156.802 26.706C156.265 27.512 155.459 28.1527 154.384 28.628C153.309 29.0827 151.956 29.31 150.323 29.31ZM176.776 29.31C175.061 29.31 173.573 28.9897 172.312 28.349C171.072 27.7083 170.111 26.7887 169.429 25.59C168.747 24.3913 168.406 22.9447 168.406 21.25C168.406 19.5553 168.747 18.1087 169.429 16.91C170.111 15.7113 171.062 14.7917 172.281 14.151C173.521 13.5103 174.937 13.19 176.528 13.19C178.161 13.19 179.546 13.5103 180.682 14.151C181.84 14.771 182.718 15.639 183.317 16.755C183.917 17.8503 184.216 19.111 184.216 20.537C184.216 20.909 184.206 21.281 184.185 21.653C184.165 22.025 184.134 22.335 184.092 22.583H171.816V19.762H181.767L179.256 20.723C179.256 19.483 179.029 18.5323 178.574 17.871C178.14 17.2097 177.458 16.879 176.528 16.879C175.867 16.879 175.299 17.034 174.823 17.344C174.369 17.654 174.017 18.1397 173.769 18.801C173.542 19.4623 173.428 20.3097 173.428 21.343C173.428 22.3557 173.563 23.1823 173.831 23.823C174.1 24.443 174.482 24.8977 174.978 25.187C175.474 25.4557 176.074 25.59 176.776 25.59C177.562 25.59 178.182 25.435 178.636 25.125C179.112 24.815 179.463 24.381 179.69 23.823L183.906 25.218C183.617 26.1067 183.111 26.861 182.387 27.481C181.685 28.0803 180.837 28.535 179.845 28.845C178.874 29.155 177.851 29.31 176.776 29.31ZM187.164 29V13.5H191.876L192.031 16.507C192.527 15.4117 193.22 14.585 194.108 14.027C195.018 13.469 196.061 13.19 197.239 13.19C198.397 13.19 199.399 13.4483 200.246 13.965C201.094 14.4817 201.724 15.2463 202.137 16.259C202.468 15.577 202.892 15.0087 203.408 14.554C203.946 14.0993 204.555 13.7583 205.237 13.531C205.919 13.3037 206.622 13.19 207.345 13.19C208.379 13.19 209.288 13.3967 210.073 13.81C210.859 14.2027 211.479 14.8123 211.933 15.639C212.409 16.445 212.646 17.4577 212.646 18.677V29H207.376V19.886C207.376 18.894 207.18 18.2017 206.787 17.809C206.415 17.4163 205.909 17.22 205.268 17.22C204.752 17.22 204.276 17.3543 203.842 17.623C203.429 17.871 203.109 18.2533 202.881 18.77C202.654 19.2867 202.54 19.9377 202.54 20.723V29H197.27V19.886C197.27 18.894 197.074 18.2017 196.681 17.809C196.289 17.4163 195.782 17.22 195.162 17.22C194.687 17.22 194.232 17.344 193.798 17.592C193.385 17.84 193.054 18.2327 192.806 18.77C192.558 19.2867 192.434 19.9687 192.434 20.816V29H187.164ZM233.867 19.173C233.867 18.4497 233.66 17.8813 233.247 17.468C232.854 17.034 232.317 16.817 231.635 16.817C230.953 16.817 230.364 16.9927 229.868 17.344C229.393 17.6747 229.062 18.274 228.876 19.142L224.412 18.088C224.701 16.6 225.466 15.4117 226.706 14.523C227.946 13.6343 229.692 13.19 231.945 13.19C233.454 13.19 234.735 13.4173 235.789 13.872C236.864 14.306 237.68 14.9673 238.238 15.856C238.817 16.724 239.106 17.7987 239.106 19.08V24.753C239.106 25.559 239.468 25.962 240.191 25.962C240.563 25.962 240.863 25.9207 241.09 25.838L240.78 28.845C240.16 29.1343 239.406 29.279 238.517 29.279C237.711 29.279 236.998 29.155 236.378 28.907C235.758 28.6383 235.272 28.2457 234.921 27.729C234.57 27.1917 234.394 26.52 234.394 25.714V25.528L234.983 25.311C234.983 26.1997 234.714 26.9437 234.177 27.543C233.66 28.1423 232.978 28.5867 232.131 28.876C231.304 29.1653 230.436 29.31 229.527 29.31C228.473 29.31 227.553 29.1447 226.768 28.814C225.983 28.4833 225.373 28.008 224.939 27.388C224.526 26.7473 224.319 25.962 224.319 25.032C224.319 23.916 224.65 22.9963 225.311 22.273C225.993 21.529 227.057 21.0123 228.504 20.723L234.363 19.514L234.332 22.304L231.356 22.924C230.736 23.048 230.271 23.234 229.961 23.482C229.672 23.7093 229.527 24.0607 229.527 24.536C229.527 24.9907 229.692 25.3317 230.023 25.559C230.354 25.7863 230.746 25.9 231.201 25.9C231.552 25.9 231.883 25.8483 232.193 25.745C232.524 25.6417 232.813 25.4867 233.061 25.28C233.309 25.0527 233.505 24.7737 233.65 24.443C233.795 24.1123 233.867 23.7197 233.867 23.265V19.173ZM249.044 8.571V23.482C249.044 24.226 249.219 24.7633 249.571 25.094C249.943 25.404 250.449 25.559 251.09 25.559C251.586 25.559 252.009 25.5073 252.361 25.404C252.733 25.28 253.063 25.1043 253.353 24.877L253.911 28.132C253.394 28.504 252.743 28.7933 251.958 29C251.172 29.2067 250.366 29.31 249.54 29.31C248.362 29.31 247.339 29.1447 246.471 28.814C245.623 28.4833 244.962 27.9563 244.487 27.233C244.032 26.5097 243.794 25.5487 243.774 24.35V10.028L249.044 8.571ZM253.663 13.5V17.251H241.108V13.5H253.663ZM263.661 29.31C261.946 29.31 260.458 28.9897 259.197 28.349C257.957 27.7083 256.996 26.7887 256.314 25.59C255.632 24.3913 255.291 22.9447 255.291 21.25C255.291 19.5553 255.632 18.1087 256.314 16.91C256.996 15.7113 257.947 14.7917 259.166 14.151C260.406 13.5103 261.822 13.19 263.413 13.19C265.046 13.19 266.43 13.5103 267.567 14.151C268.724 14.771 269.603 15.639 270.202 16.755C270.801 17.8503 271.101 19.111 271.101 20.537C271.101 20.909 271.091 21.281 271.07 21.653C271.049 22.025 271.018 22.335 270.977 22.583H258.701V19.762H268.652L266.141 20.723C266.141 19.483 265.914 18.5323 265.459 17.871C265.025 17.2097 264.343 16.879 263.413 16.879C262.752 16.879 262.183 17.034 261.708 17.344C261.253 17.654 260.902 18.1397 260.654 18.801C260.427 19.4623 260.313 20.3097 260.313 21.343C260.313 22.3557 260.447 23.1823 260.716 23.823C260.985 24.443 261.367 24.8977 261.863 25.187C262.359 25.4557 262.958 25.59 263.661 25.59C264.446 25.59 265.066 25.435 265.521 25.125C265.996 24.815 266.348 24.381 266.575 23.823L270.791 25.218C270.502 26.1067 269.995 26.861 269.272 27.481C268.569 28.0803 267.722 28.535 266.73 28.845C265.759 29.155 264.736 29.31 263.661 29.31ZM263.01 6.122H267.908L264.777 11.485H260.933L263.01 6.122Z" fill="#fff"/>
<path d="M79.168 193V161.364H85.196V174.74C85.9 173.332 86.868 172.291 88.1 171.616C89.332 170.912 90.7253 170.56 92.28 170.56C93.8053 170.56 95.1547 170.853 96.328 171.44C97.5307 172.027 98.4693 172.921 99.144 174.124C99.848 175.297 100.2 176.779 100.2 178.568V193H94.172V180.328C94.172 178.421 93.8053 177.116 93.072 176.412C92.3387 175.679 91.4 175.312 90.256 175.312C89.4053 175.312 88.584 175.517 87.792 175.928C87.0293 176.309 86.3987 176.955 85.9 177.864C85.4307 178.744 85.196 179.917 85.196 181.384V193H79.168ZM116.442 170.56C118.672 170.56 120.622 171.015 122.294 171.924C123.996 172.833 125.316 174.139 126.254 175.84C127.222 177.541 127.706 179.595 127.706 182C127.706 184.376 127.222 186.429 126.254 188.16C125.316 189.861 123.996 191.167 122.294 192.076C120.622 192.985 118.672 193.44 116.442 193.44C114.242 193.44 112.292 192.985 110.59 192.076C108.889 191.167 107.554 189.861 106.586 188.16C105.648 186.429 105.178 184.376 105.178 182C105.178 179.595 105.648 177.541 106.586 175.84C107.554 174.139 108.889 172.833 110.59 171.924C112.292 171.015 114.242 170.56 116.442 170.56ZM116.442 175.048C115.328 175.048 114.374 175.312 113.582 175.84C112.82 176.339 112.233 177.101 111.822 178.128C111.412 179.155 111.206 180.445 111.206 182C111.206 183.555 111.412 184.845 111.822 185.872C112.233 186.899 112.82 187.676 113.582 188.204C114.374 188.703 115.328 188.952 116.442 188.952C117.528 188.952 118.452 188.703 119.214 188.204C120.006 187.676 120.608 186.899 121.018 185.872C121.429 184.845 121.634 183.555 121.634 182C121.634 180.445 121.429 179.155 121.018 178.128C120.608 177.101 120.006 176.339 119.214 175.84C118.452 175.312 117.528 175.048 116.442 175.048ZM132.75 193V171H137.986L138.382 175.312C138.969 173.787 139.819 172.613 140.934 171.792C142.078 170.971 143.501 170.56 145.202 170.56C145.701 170.56 146.155 170.604 146.566 170.692C146.977 170.78 147.314 170.897 147.578 171.044L146.874 176.104C146.581 175.987 146.214 175.899 145.774 175.84C145.363 175.781 144.821 175.752 144.146 175.752C143.266 175.752 142.415 175.972 141.594 176.412C140.773 176.823 140.098 177.468 139.57 178.348C139.042 179.199 138.778 180.284 138.778 181.604V193H132.75ZM163.466 178.964C163.466 177.703 163.099 176.72 162.366 176.016C161.662 175.312 160.723 174.96 159.55 174.96C158.464 174.96 157.511 175.239 156.69 175.796C155.868 176.353 155.267 177.277 154.886 178.568L149.738 176.984C150.236 175.048 151.322 173.493 152.994 172.32C154.695 171.147 156.968 170.56 159.814 170.56C161.75 170.56 163.436 170.868 164.874 171.484C166.311 172.071 167.426 172.965 168.218 174.168C169.039 175.371 169.45 176.881 169.45 178.7V187.632C169.45 188.747 169.978 189.304 171.034 189.304C171.532 189.304 172.002 189.231 172.442 189.084L172.09 192.824C171.327 193.205 170.374 193.396 169.23 193.396C168.203 193.396 167.279 193.22 166.458 192.868C165.636 192.516 164.991 191.988 164.522 191.284C164.052 190.551 163.818 189.641 163.818 188.556V188.38L164.874 188.204C164.698 189.319 164.214 190.272 163.422 191.064C162.63 191.827 161.662 192.413 160.518 192.824C159.403 193.235 158.244 193.44 157.042 193.44C155.546 193.44 154.255 193.22 153.17 192.78C152.084 192.311 151.248 191.636 150.662 190.756C150.075 189.876 149.782 188.791 149.782 187.5C149.782 185.857 150.31 184.523 151.366 183.496C152.422 182.44 153.932 181.721 155.898 181.34L164.17 179.668L164.126 183.408L158.846 184.464C157.848 184.669 157.086 184.948 156.558 185.3C156.059 185.623 155.81 186.165 155.81 186.928C155.81 187.661 156.074 188.219 156.602 188.6C157.159 188.981 157.819 189.172 158.582 189.172C159.198 189.172 159.799 189.099 160.386 188.952C160.972 188.805 161.5 188.571 161.97 188.248C162.439 187.925 162.806 187.485 163.07 186.928C163.334 186.371 163.466 185.696 163.466 184.904V178.964ZM184.991 193.44C182.762 193.44 180.723 193.044 178.875 192.252C177.057 191.46 175.575 190.345 174.431 188.908L177.907 185.388C178.611 186.444 179.55 187.309 180.723 187.984C181.897 188.659 183.29 188.996 184.903 188.996C186.047 188.996 186.957 188.835 187.631 188.512C188.335 188.16 188.687 187.617 188.687 186.884C188.687 186.415 188.526 186.019 188.203 185.696C187.881 185.344 187.235 185.065 186.267 184.86L182.395 184.068C179.843 183.54 178.025 182.748 176.939 181.692C175.883 180.607 175.355 179.213 175.355 177.512C175.355 176.309 175.707 175.18 176.411 174.124C177.145 173.068 178.23 172.217 179.667 171.572C181.105 170.897 182.894 170.56 185.035 170.56C187.235 170.56 189.142 170.912 190.755 171.616C192.398 172.291 193.689 173.303 194.627 174.652L191.019 178.172C190.374 177.145 189.523 176.368 188.467 175.84C187.441 175.283 186.355 175.004 185.211 175.004C184.39 175.004 183.686 175.092 183.099 175.268C182.513 175.444 182.073 175.693 181.779 176.016C181.486 176.309 181.339 176.691 181.339 177.16C181.339 177.629 181.545 178.04 181.955 178.392C182.366 178.715 183.114 178.993 184.199 179.228L188.687 180.152C190.858 180.592 192.413 181.34 193.351 182.396C194.29 183.423 194.759 184.669 194.759 186.136C194.759 187.544 194.378 188.805 193.615 189.92C192.882 191.005 191.782 191.871 190.315 192.516C188.878 193.132 187.103 193.44 184.991 193.44Z" fill="#fff"/>
<path d="M80.06 132V120.89C85.7833 117.321 90.665 113.988 94.705 110.891C98.745 107.794 102.011 104.865 104.502 102.104C107.061 99.3433 108.946 96.7173 110.158 94.226C111.37 91.7347 111.976 89.3107 111.976 86.954C111.976 84.3953 111.202 82.2743 109.653 80.591C108.172 78.8403 105.95 77.965 102.987 77.965C99.8223 77.965 97.3647 79.1433 95.614 81.5C93.8633 83.7893 92.9207 87.156 92.786 91.6L77.939 87.055C78.0737 82.0723 79.252 77.8977 81.474 74.531C83.7633 71.1643 86.8607 68.6393 90.766 66.956C94.6713 65.2053 99.1153 64.33 104.098 64.33C108.475 64.33 112.245 64.9697 115.41 66.249C118.642 67.461 121.268 69.1107 123.288 71.198C125.308 73.218 126.789 75.5073 127.732 78.066C128.742 80.5573 129.247 83.116 129.247 85.742C129.247 90.0513 128.136 94.0913 125.914 97.862C123.692 101.565 120.46 105.168 116.218 108.669C112.043 112.103 106.96 115.571 100.967 119.072V119.173C102.112 119.106 103.458 119.038 105.007 118.971C106.556 118.904 108.172 118.87 109.855 118.87C111.538 118.803 113.053 118.769 114.4 118.769H130.055V132H80.06ZM169.749 132V117.355H137.227V106.447C137.833 105.37 138.607 104.057 139.55 102.508C140.56 100.959 141.738 99.175 143.085 97.155L164.8 65.34H185.101V105.437H195.302V117.355H185.101V132H169.749ZM151.165 105.437H169.951V85.237C169.951 83.8903 169.984 82.51 170.052 81.096C170.119 79.6147 170.186 78.1333 170.254 76.652H170.052C169.378 78.066 168.57 79.5473 167.628 81.096C166.752 82.5773 165.911 83.924 165.103 85.136L153.286 102.407C152.949 102.946 152.612 103.451 152.276 103.922C151.939 104.393 151.569 104.898 151.165 105.437Z" fill="#fff"/>
</svg>
